<svg width="100" height="100" viewBox="0 0 100 100" fill="none" xmlns="http://www.w3.org/2000/svg">
<g clip-path="url(#clip0_292_10)">
<path fill-rule="evenodd" clip-rule="evenodd" d="M55.0462 42.7794C53.9856 43.2716 52.9585 43.543 51.963 43.5955C50.9674 43.6475 49.2276 43.6726 46.7449 43.6726H44.9223V31.442H45.9308C48.5167 31.442 50.4627 31.4615 51.7684 31.501C53.0746 31.54 54.2057 31.766 55.1636 32.1796C56.1721 32.621 56.9142 33.3322 57.3933 34.3152C57.872 35.2995 58.1112 36.2569 58.1112 37.1883C58.1112 38.4575 57.8907 39.5702 57.4518 40.5276C57.0112 41.4864 56.2102 42.2361 55.0462 42.7794ZM57.9557 66.9297C56.4554 67.5776 54.9825 67.9275 53.5338 67.9782C52.0856 68.0307 49.4733 68.0567 45.6986 68.0567H44.9223V53.5739H47.5983C50.1842 53.5739 52.2472 53.593 53.7859 53.6324C55.3243 53.671 56.5334 53.8596 57.4128 54.1952C58.8611 54.7134 59.9467 55.4762 60.6711 56.4856C61.3954 57.4955 61.758 58.8926 61.758 60.6796C61.758 62.0767 61.4526 63.3268 60.8456 64.4265C60.2383 65.5261 59.2752 66.3613 57.9557 66.9297ZM73.4722 51.574C71.326 49.2581 68.4681 47.7239 64.8997 46.9729V46.662C67.3824 45.6274 69.328 44.0096 70.7377 41.809C72.1465 39.6092 72.8514 37.0981 72.8514 34.277C72.8514 31.844 72.3411 29.6959 71.3195 27.8313C70.2976 25.9676 68.7527 24.4799 66.6837 23.3668C64.7693 22.3313 62.721 21.6518 60.5355 21.3283C58.3499 21.0044 55.1376 20.8427 50.8955 20.8427H30.4914V78.656H53.6109C57.619 78.656 60.9241 78.2935 63.5221 77.5681C66.1214 76.8448 68.5075 75.6277 70.6788 73.9192C72.5156 72.4956 73.9769 70.6961 75.063 68.522C76.1486 66.3474 76.6923 63.8237 76.6923 60.951C76.6923 57.0172 75.6188 53.8908 73.4722 51.574ZM80.2533 100H19.6541C8.79937 100 0 91.1918 0 80.3272V19.6724C0 8.80764 8.79937 8.40202e-07 19.6541 8.40202e-07H80.2533C91.108 8.40202e-07 99.9071 8.80764 99.9071 19.6724V80.3272C99.9071 91.1918 91.108 100 80.2533 100ZM149.997 75.9841L137.456 54.9827H133.212V75.9841H116.709V22.9843H133.212V44.2693C135.537 44.239 137.274 43.8999 138.422 43.2542C139.569 42.6099 140.819 40.9027 142.17 38.1336C142.611 37.1896 143.081 36.152 143.585 35.0194C144.088 33.8859 144.544 32.8795 144.952 31.9988C146.619 28.5056 148.67 26.115 151.106 24.8255C153.541 23.5355 156.505 22.8898 159.993 22.8898C161.22 22.8898 162.382 22.9063 163.483 22.9375C164.582 22.9692 165.37 22.9843 165.841 22.9843V37.1428H162.634C161.628 37.1428 160.725 37.3397 159.922 37.733C159.122 38.1262 158.421 38.6219 157.825 39.2198C157.227 39.8486 156.78 40.4778 156.481 41.1069C156.182 41.7374 155.892 42.3501 155.608 42.9481C154.885 44.6461 154.351 45.8581 154.006 46.5818C153.659 47.3055 153.046 48.014 152.166 48.7052L169 75.9841H149.997Z" fill="#4D71A9"/>
</g>
<defs>
<clipPath id="clip0_292_10">
<rect width="100" height="100" fill="white"/>
</clipPath>
</defs>
</svg>
